<?xml version="1.0" encoding="UTF-8"?>
<svg version="1.1" xmlns="http://www.w3.org/2000/svg" width="581" height="275">
<path d="M0 0 C3.79664681 3.20657492 6.32985741 6.87238472 7.91015625 11.61328125 C7.99374583 13.8241807 8.01747389 16.03754203 8.0078125 18.25 C8.00297852 20.1980957 8.00297852 20.1980957 7.99804688 22.18554688 C7.98969156 23.55729233 7.98122662 24.92903712 7.97265625 26.30078125 C7.9676396 27.6842432 7.96307698 29.06770688 7.95898438 30.45117188 C7.94718154 33.8385852 7.93071644 37.22591158 7.91015625 40.61328125 C6.26015625 40.61328125 4.61015625 40.61328125 2.91015625 40.61328125 C2.63042969 39.453125 2.35070312 38.29296875 2.0625 37.09765625 C-1.04328909 24.77494243 -4.652809 11.79133653 -16.08984375 4.61328125 C-26.53299889 -1.34289088 -39.53568263 -3.21280516 -51.21484375 -0.32421875 C-57.69767578 1.84012832 -62.06151346 5.88771243 -66.08984375 11.30078125 C-67.98783743 17.58788531 -68.3145822 24.65258464 -65.71484375 30.80078125 C-59.65045515 40.57899927 -49.07137505 46.43886373 -39.40234375 52.11328125 C-38.14981624 52.8601481 -36.89794892 53.60812316 -35.64672852 54.35717773 C-32.13541044 56.45565268 -28.61407252 58.53656033 -25.08984375 60.61328125 C8.37869188 80.35324931 8.37869188 80.35324931 12.91015625 94.61328125 C15.40233216 104.98340918 14.55939 116.69232069 9.55078125 126.19140625 C1.78641091 138.27820956 -8.30705291 144.26828373 -22.08984375 147.61328125 C-39.77357075 151.19822761 -60.77431589 147.10942843 -76.02734375 137.80078125 C-81.11338723 134.1852881 -85.10520668 129.56719245 -87.08984375 123.61328125 C-87.17322415 121.475336 -87.19718122 119.33486116 -87.1875 117.1953125 C-87.18427734 115.94169922 -87.18105469 114.68808594 -87.17773438 113.39648438 C-87.16935547 112.08615234 -87.16097656 110.77582031 -87.15234375 109.42578125 C-87.14732692 108.09049644 -87.14276434 106.75520984 -87.13867188 105.41992188 C-87.1268707 102.15099652 -87.11040672 98.88216134 -87.08984375 95.61328125 C-85.10984375 95.11828125 -85.10984375 95.11828125 -83.08984375 94.61328125 C-80.83374432 97.99743039 -80.26289452 100.66197618 -79.33984375 104.61328125 C-76.24156176 116.80220761 -70.97477842 126.30766073 -59.8984375 132.921875 C-48.3282563 138.57242861 -35.19246883 138.99410994 -22.9296875 135.6640625 C-17.10082744 133.5073041 -12.44831677 129.85249916 -9.08984375 124.61328125 C-6.91190828 117.86699332 -6.33433509 111.23381753 -9.08984375 104.61328125 C-15.75925865 92.95270291 -27.47998714 86.727 -38.71484375 80.23828125 C-80.77214228 55.78933916 -80.77214228 55.78933916 -85.90234375 39.36328125 C-88.63639733 27.95567838 -87.59792541 16.55114261 -81.734375 6.2265625 C-74.0967502 -4.5234456 -64.46498339 -9.38390216 -51.7265625 -11.84765625 C-33.86282113 -14.49555776 -14.83494952 -10.41946545 0 0 Z " fill="#34446D" transform="translate(103.08984375,15.38671875)"/>
<path d="M0 0 C3.62492967 -0.05891984 7.24973334 -0.0939009 10.875 -0.125 C11.88820313 -0.14175781 12.90140625 -0.15851562 13.9453125 -0.17578125 C21.49487865 -0.2241759 29.25153699 -0.15337237 35.9375 3.6875 C44.22262919 12.97688727 42.15274502 27.56291636 42.19923019 39.18584442 C42.2111704 41.91256049 42.230659 44.63912863 42.25234985 47.36578369 C42.31346439 55.11196879 42.3678745 62.8581341 42.40136719 70.60449219 C42.42247928 75.36241336 42.45790488 80.12005524 42.50212479 84.87781525 C42.51614584 86.67483455 42.52497526 88.47190316 42.52817917 90.2689743 C42.55875901 105.77703599 43.11458955 122.43126239 53.62890625 134.9375 C63.78235373 144.36065311 76.73795193 144.57140409 89.80126953 144.13623047 C99.98203459 143.50544356 109.57133736 139.83304248 116.75 132.5 C128.689442 117.76268412 127.31022956 97.34785749 127.37890625 79.55078125 C127.39510099 77.28345538 127.41228302 75.01613636 127.43040466 72.74882507 C127.47584031 66.81624509 127.51078985 60.88365577 127.54260254 54.95098877 C127.59473847 45.41731043 127.65945732 35.88373166 127.73081779 26.35017967 C127.75369437 23.01913241 127.76992727 19.68809813 127.78553772 16.35700989 C127.79893415 14.33346404 127.81254805 12.30991962 127.82641602 10.28637695 C127.82902939 9.35504944 127.83164276 8.42372192 127.83433533 7.46417236 C127.88634801 1.11365199 127.88634801 1.11365199 129 0 C130.8125 -0.1328125 130.8125 -0.1328125 133 -0.125 C133.721875 -0.12757813 134.44375 -0.13015625 135.1875 -0.1328125 C137 0 137 0 138 1 C138.11138707 4.03506781 138.15740745 7.04758031 138.16113281 10.08349609 C138.16609772 11.03823318 138.17106262 11.99297028 138.17617798 12.97663879 C138.19086463 16.15891226 138.19761853 19.34113559 138.203125 22.5234375 C138.20887883 24.74093629 138.21463654 26.95843507 138.22039795 29.17593384 C138.23093158 33.84515617 138.23675622 38.5143612 138.24023438 43.18359375 C138.24567103 49.11750572 138.26958394 55.05118258 138.29820633 60.98502159 C138.31701173 65.57865008 138.32204811 70.17222452 138.32357025 74.76588821 C138.32656603 76.94957363 138.33448822 79.13325881 138.34775543 81.31690598 C138.46907992 102.85460423 138.4585842 126.3368132 122.34375 142.6796875 C108.30126128 155.50941583 88.76350763 155.60198045 70.80224609 155.13183594 C57.08938047 154.48669328 44.11166697 150.02148698 34.03515625 140.45703125 C20.10284379 123.63663866 19.72031473 99.86422359 19.69503975 79.08129501 C19.69128439 76.59914183 19.6743271 74.11735693 19.65428162 71.63528442 C19.59966456 64.59449094 19.56805935 57.5536524 19.54370117 50.51269531 C19.52778111 46.16703476 19.4975489 41.82165408 19.45893669 37.47613907 C19.44736172 35.83604023 19.441357 34.19589148 19.44125557 32.5557518 C19.60094237 20.91674459 19.60094237 20.91674459 16 10 C11.74925392 5.88208973 5.62422011 6.2856434 0 6 C0 4.02 0 2.04 0 0 Z " fill="#34446D" transform="translate(292,7)"/>
<path d="M0 0 C1.01707031 -0.01224609 2.03414063 -0.02449219 3.08203125 -0.03710938 C10.74981376 -0.05187404 18.20225944 0.31397792 25 4.1875 C26.23046875 5.95703125 26.23046875 5.95703125 27.1875 8 C27.67283203 8.99966797 27.67283203 8.99966797 28.16796875 10.01953125 C29.76156131 14.1718499 30.12466274 18.15077117 30.12025452 22.57221985 C30.12162918 23.63927658 30.12300385 24.70633331 30.12442017 25.8057251 C30.11902725 27.54605011 30.11902725 27.54605011 30.11352539 29.3215332 C30.11367142 30.55121323 30.11381744 31.78089325 30.1139679 33.0478363 C30.1133914 36.41109352 30.1083827 39.77428904 30.10139394 43.13753533 C30.09513455 46.65558709 30.09455455 50.1736397 30.09336853 53.69169617 C30.09026284 60.3497394 30.08205972 67.00776618 30.07201904 73.66580218 C30.05973666 81.991391 30.05426936 90.3169825 30.04882812 98.64257812 C30.03909387 113.49089823 30.01906074 128.33918243 30 143.1875 C57.06 143.1875 84.12 143.1875 112 143.1875 C112 146.1575 112 149.1275 112 152.1875 C110.03571633 154.15178367 107.01702837 153.30773917 104.40252686 153.31192017 C103.4523468 153.30832489 102.50216675 153.30472961 101.52319336 153.30102539 C100.03067802 153.30124443 100.03067802 153.30124443 98.50801086 153.3014679 C95.20193338 153.30076831 91.89591146 153.29297379 88.58984375 153.28515625 C86.30440807 153.28329223 84.01897199 153.28186825 81.73353577 153.28086853 C75.70501613 153.27704207 69.67652041 153.2672107 63.64801025 153.25616455 C57.50167159 153.24595317 51.35532907 153.2413715 45.20898438 153.23632812 C33.13931238 153.22558854 21.06965818 153.2085106 9 153.1875 C8.99668985 152.52065721 8.99337971 151.85381441 8.98996925 151.16676426 C8.90862812 134.91542356 8.81649955 118.66418308 8.71247292 102.41297245 C8.66242386 94.55389907 8.61598027 86.69483572 8.578125 78.83569336 C8.54510798 71.9829442 8.50522364 65.13027467 8.45720994 58.27761358 C8.43204113 54.65165829 8.41023189 51.02575517 8.39665604 47.3997364 C8.38134448 43.34458161 8.35069642 39.28967781 8.31884766 35.23461914 C8.31668747 34.04202988 8.31452728 32.84944061 8.31230164 31.62071228 C8.24165727 20.37886321 8.24165727 20.37886321 4.0625 10.1875 C0.8196078 7.04287726 -2.34953088 6.98224452 -6.6875 6.625 C-7.68136719 6.54121094 -8.67523438 6.45742187 -9.69921875 6.37109375 C-10.83810547 6.28021484 -10.83810547 6.28021484 -12 6.1875 C-12.042721 4.52138095 -12.04063832 2.85367115 -12 1.1875 C-9.57278283 -1.23971717 -3.25655946 0.0020028 0 0 Z " fill="#34446D" transform="translate(463,6.8125)"/>
<path d="M0 0 C4.49776577 2.24888288 4.49776577 2.24888288 6.55859375 5.28125 C7.02096436 5.95027344 7.48333496 6.61929688 7.9597168 7.30859375 C8.44738525 8.03175781 8.93505371 8.75492188 9.4375 9.5 C10.49372657 11.03198487 11.55105881 12.56320792 12.609375 14.09375 C13.15916016 14.89296875 13.70894531 15.6921875 14.27539062 16.515625 C17.19149753 20.71640414 20.18906915 24.85777747 23.1875 29 C23.75202881 29.78310547 24.31655762 30.56621094 24.89819336 31.37304688 C27.27827087 34.82805843 27.27827087 34.82805843 30 38 C30.03758423 36.37203491 30.03758423 36.37203491 30.07592773 34.71118164 C30.16983755 30.698684 30.27009767 26.68636618 30.37231445 22.67407227 C30.41572573 20.93485712 30.45739612 19.19559765 30.49731445 17.45629883 C30.55486768 14.96161512 30.6186042 12.4671559 30.68359375 9.97265625 C30.70030624 9.19036148 30.71701874 8.40806671 30.73423767 7.60206604 C30.88612829 2.11387171 30.88612829 2.11387171 32 1 C35.63 1 39.26 1 43 1 C43 20.14 43 39.28 43 59 C35 62 35 62 31 61 C29.21792195 58.93097717 27.67472821 56.92081401 26.125 54.6875 C25.66029297 54.03612061 25.19558594 53.38474121 24.71679688 52.71362305 C23.13208347 50.48427607 21.56538662 48.24295573 20 46 C18.75806882 44.23159079 17.51587217 42.46336801 16.2734375 40.6953125 C13.32129216 36.4887521 10.38161522 32.27370725 7.45117188 28.05200195 C6.00524046 26.00741018 4.50252665 24.00336887 3 22 C2.67 34.87 2.34 47.74 2 61 C-1.63 61 -5.26 61 -9 61 C-9 41.86 -9 22.72 -9 3 C-6.03 2.01 -3.06 1.02 0 0 Z " fill="#34446D" transform="translate(146,209)"/>
<path d="M0 0 C1.48876953 1.65722656 1.48876953 1.65722656 2.8828125 3.640625 C3.40560791 4.37506836 3.92840332 5.10951172 4.46704102 5.86621094 C5.01416748 6.65286133 5.56129395 7.43951172 6.125 8.25 C6.69468506 9.05469727 7.26437012 9.85939453 7.85131836 10.68847656 C9.01503716 12.33294318 10.17544516 13.97975775 11.33251953 15.62890625 C12.85425514 17.79275636 14.38924028 19.94600886 15.93359375 22.09375 C16.38009277 22.71475586 16.8265918 23.33576172 17.28662109 23.97558594 C17.70766113 24.56114258 18.12870117 25.14669922 18.5625 25.75 C21.45693254 29.79146736 24.24026901 33.86040352 27 38 C27.33 25.13 27.66 12.26 28 -1 C31.63 -1 35.26 -1 39 -1 C39 18.14 39 37.28 39 57 C31 60 31 60 27 59 C25.57470703 57.55151367 25.57470703 57.55151367 24.2578125 55.66796875 C23.75531982 54.96075684 23.25282715 54.25354492 22.73510742 53.52490234 C22.20377197 52.75355957 21.67243652 51.9822168 21.125 51.1875 C20.56852783 50.39811035 20.01205566 49.6087207 19.4387207 48.79541016 C17.61550668 46.2040065 15.80800189 43.6020345 14 41 C12.67944619 39.11774492 11.35782196 37.2362404 10.03515625 35.35546875 C6.67868278 30.57823683 3.33496513 25.79226717 0 21 C-0.02505615 22.11560303 -0.0501123 23.23120605 -0.07592773 24.38061523 C-0.16983421 28.5049259 -0.27009514 32.6290615 -0.37231445 36.75317383 C-0.415727 38.5408927 -0.45739729 40.32865474 -0.49731445 42.11645508 C-0.5548646 44.68063391 -0.61860203 47.24459412 -0.68359375 49.80859375 C-0.70866249 51.01484657 -0.70866249 51.01484657 -0.73423767 52.24546814 C-0.88612829 57.88612829 -0.88612829 57.88612829 -2 59 C-3.66429051 59.09823937 -5.33281931 59.12973631 -7 59.125 C-8.36125 59.12886719 -8.36125 59.12886719 -9.75 59.1328125 C-12 59 -12 59 -13 58 C-13.09370624 56.22008076 -13.11744271 54.43643261 -13.11352539 52.65405273 C-13.11344986 51.5129454 -13.11337433 50.37183807 -13.11329651 49.19615173 C-13.10813522 47.9545076 -13.10297394 46.71286346 -13.09765625 45.43359375 C-13.0962413 44.16983414 -13.09482635 42.90607452 -13.09336853 41.60401917 C-13.08870582 38.23875111 -13.0797148 34.8735501 -13.06866455 31.50830078 C-13.05844846 28.0765033 -13.05387049 24.64469891 -13.04882812 21.21289062 C-13.0377738 14.47524176 -13.0210171 7.73762475 -13 1 C-11.59054634 0.43983252 -10.1719969 -0.09748502 -8.75 -0.625 C-7.96109375 -0.92664063 -7.1721875 -1.22828125 -6.359375 -1.5390625 C-3.46439484 -2.10463809 -2.42220283 -1.60410184 0 0 Z " fill="#34446D" transform="translate(214,211)"/>
<path d="M0 0 C1.44116211 1.59375 1.44116211 1.59375 2.77734375 3.5 C3.28491211 4.21414062 3.79248047 4.92828125 4.31542969 5.6640625 C4.85071289 6.43492187 5.38599609 7.20578125 5.9375 8 C7.08693144 9.62521798 8.23668086 11.2502111 9.38671875 12.875 C9.97759277 13.71546875 10.5684668 14.5559375 11.17724609 15.421875 C14.71755736 20.42933374 18.34187275 25.37649641 21.94897461 30.3359375 C22.46596924 31.05007812 22.98296387 31.76421875 23.515625 32.5 C23.97227539 33.1290625 24.42892578 33.758125 24.89941406 34.40625 C26 36 26 36 27 38 C27.33 25.13 27.66 12.26 28 -1 C31.63 -1 35.26 -1 39 -1 C39 18.14 39 37.28 39 57 C31 60 31 60 27 59 C25.65063477 57.61157227 25.65063477 57.61157227 24.44140625 55.81640625 C23.97911621 55.14432129 23.51682617 54.47223633 23.04052734 53.77978516 C22.55277832 53.04808105 22.0650293 52.31637695 21.5625 51.5625 C20.5051048 50.01870964 19.44646603 48.47577045 18.38671875 46.93359375 C17.56179932 45.72485596 17.56179932 45.72485596 16.72021484 44.49169922 C13.84022758 40.32009121 10.85593248 36.22477664 7.875 32.125 C6.78849967 30.62801251 5.70252227 29.13064526 4.6171875 27.6328125 C4.15940918 27.00262207 3.70163086 26.37243164 3.22998047 25.72314453 C2.12187193 24.17073682 1.05799145 22.58698718 0 21 C-0.33 33.54 -0.66 46.08 -1 59 C-4.63 59 -8.26 59 -12 59 C-13.69945425 57.30054575 -13.16244906 55.12013532 -13.19287109 52.79345703 C-13.20893402 51.68205353 -13.22499695 50.57065002 -13.24154663 49.42556763 C-13.28578057 44.33824115 -13.32705487 39.25104776 -13.35009766 34.16357422 C-13.36344411 31.4744266 -13.39130435 28.7860366 -13.43212891 26.09716797 C-13.48668933 22.23381532 -13.50874022 18.3714977 -13.5234375 14.5078125 C-13.54610687 13.30150177 -13.56877625 12.09519104 -13.59213257 10.85232544 C-13.58928253 9.73461761 -13.5864325 8.61690979 -13.58349609 7.46533203 C-13.59158295 6.48017609 -13.5996698 5.49502014 -13.60800171 4.48001099 C-13 2 -13 2 -10.59243774 0.209198 C-6.17302764 -1.85215983 -4.30033456 -2.57805236 0 0 Z " fill="#34446D" transform="translate(527,211)"/>
<path d="M0 0 C5.54184121 4.53626518 7.93371873 9.28621246 9.625 16.1875 C10.73024835 27.95968015 9.53198689 37.85522257 1.875 47.125 C-4.18952661 53.43798022 -10.44042006 55.85295221 -19.0625 56.4375 C-26.99422784 56.27318925 -33.77203669 53.91539512 -39.55078125 48.41796875 C-47.01161734 39.29561884 -48.97203998 29.62807697 -48.375 18.1875 C-47.57745027 10.90495573 -44.08302578 4.34391864 -38.484375 -0.421875 C-26.90491337 -8.17190837 -11.41303458 -8.05252995 0 0 Z M-33.375 11.1875 C-36.81580386 17.68515536 -37.41355855 23.9217821 -35.68359375 31.02734375 C-33.71752972 37.15586971 -31.78474273 40.65940692 -26.375 44.1875 C-22.32936324 46.21031838 -17.75287234 45.8896116 -13.375 45.1875 C-8.51072555 42.66029552 -5.35700335 39.03014749 -3.375 33.9375 C-1.21704017 25.71202975 -1.51115002 17.78196375 -5.375 10.1875 C-9.59009372 5.97240628 -13.41096529 4.34337577 -19.3125 3.875 C-25.18600685 4.04091827 -29.76375105 6.58004444 -33.375 11.1875 Z " fill="#34446D" transform="translate(494.375,214.8125)"/>
<path d="M0 0 C6.48003689 6.38085265 8.54530015 14.04123556 8.84375 22.8828125 C8.6243728 32.22570027 5.75503772 40.44698608 -0.46875 47.5078125 C-6.87095172 52.95376551 -13.74556777 56.0600383 -22.3046875 55.74609375 C-31.26230413 54.75978578 -37.59780676 51.39777547 -43.46875 44.5078125 C-49.70901193 34.57403037 -50.85914274 24.334893 -49.04296875 12.8046875 C-47.17552882 6.25146271 -43.10787074 0.93857655 -37.4453125 -2.84375 C-25.93778707 -8.97227887 -10.37096975 -8.16958466 0 0 Z M-34.90625 10.5078125 C-38.56066177 17.5242831 -38.51612118 25.78090665 -36.34375 33.3203125 C-34.63431702 37.85437997 -32.17182946 40.42191295 -28.46875 43.5078125 C-22.88634548 45.36861401 -17.41743031 45.44606598 -12.09375 42.8828125 C-6.07142897 37.43404586 -3.51875415 31.24205782 -3.09375 23.1953125 C-3.18630171 17.82731355 -5.22290172 13.31031843 -7.46875 8.5078125 C-8.12875 8.5078125 -8.78875 8.5078125 -9.46875 8.5078125 C-9.46875 7.8478125 -9.46875 7.1878125 -9.46875 6.5078125 C-18.85150905 1.81643298 -27.9586269 1.95689176 -34.90625 10.5078125 Z " fill="#34446D" transform="translate(118.46875,215.4921875)"/>
<path d="M0 0 C0.75042068 0.00424484 1.50084137 0.00848969 2.27400208 0.01286316 C4.66871151 0.02964425 7.06257659 0.06729385 9.45703125 0.10546875 C11.08136805 0.1205164 12.70571805 0.13420466 14.33007812 0.14648438 C18.31022073 0.1795457 22.28973288 0.23132281 26.26953125 0.29296875 C27.58579817 3.91270277 28.26953125 6.38864006 28.26953125 10.29296875 C19.35953125 10.29296875 10.44953125 10.29296875 1.26953125 10.29296875 C1.26953125 15.57296875 1.26953125 20.85296875 1.26953125 26.29296875 C8.19953125 26.29296875 15.12953125 26.29296875 22.26953125 26.29296875 C22.26953125 29.59296875 22.26953125 32.89296875 22.26953125 36.29296875 C15.33953125 36.29296875 8.40953125 36.29296875 1.26953125 36.29296875 C1.37265625 38.06671875 1.47578125 39.84046875 1.58203125 41.66796875 C1.66904297 43.16457031 1.66904297 43.16457031 1.7578125 44.69140625 C1.92667969 45.54992187 2.09554688 46.4084375 2.26953125 47.29296875 C5.55700541 49.48461819 6.7544795 49.57976261 10.59375 49.70703125 C11.62177734 49.74570312 12.64980469 49.784375 13.70898438 49.82421875 C14.78083984 49.85515625 15.85269531 49.88609375 16.95703125 49.91796875 C18.04048828 49.95664062 19.12394531 49.9953125 20.24023438 50.03515625 C22.91638459 50.12946991 25.59293467 50.21231001 28.26953125 50.29296875 C28.26953125 53.59296875 28.26953125 56.89296875 28.26953125 60.29296875 C24.24943668 60.36752824 20.22961392 60.42176233 16.20898438 60.45776367 C14.84335309 60.47278303 13.47776949 60.49320483 12.11230469 60.51928711 C10.1414922 60.55597012 8.17031717 60.57115426 6.19921875 60.5859375 C5.01569824 60.60164795 3.83217773 60.6173584 2.61279297 60.63354492 C-1.97309776 60.16638284 -5.3767369 58.74006141 -8.54296875 55.35546875 C-10.54843634 51.87228819 -10.8576576 48.63713899 -10.89160156 44.66381836 C-10.90120911 43.75284897 -10.91081665 42.84187958 -10.92071533 41.90330505 C-10.92496521 40.92716751 -10.92921509 39.95102997 -10.93359375 38.9453125 C-10.93929382 37.93706924 -10.9449939 36.92882599 -10.9508667 35.89002991 C-10.96030278 33.76092576 -10.96684515 31.63180711 -10.97070312 29.50268555 C-10.9804428 26.23916466 -11.01149321 22.97626468 -11.04296875 19.71289062 C-11.04949571 17.64453499 -11.05474738 15.57617486 -11.05859375 13.5078125 C-11.07094055 12.52965073 -11.08328735 11.55148895 -11.0960083 10.54368591 C-11.0930072 9.63586868 -11.0900061 8.72805145 -11.08691406 7.79272461 C-11.09055969 6.9942662 -11.09420532 6.1958078 -11.09796143 5.37315369 C-10.0345505 -0.64626256 -5.03754709 -0.10711071 0 0 Z " fill="#34446D" transform="translate(275.73046875,209.70703125)"/>
<path d="M0 0 C3.12994698 3.43530766 4.28204756 6.19438316 4.5625 10.8125 C3.87897818 13.95670036 3.35018665 15.24210622 0.75 17.125 C-1.74939617 17.91052451 -3.83243282 17.95722595 -6.4375 17.8125 C-6.63085938 17.18601563 -6.82421875 16.55953125 -7.0234375 15.9140625 C-7.28382812 15.09679687 -7.54421875 14.27953125 -7.8125 13.4375 C-8.06773438 12.62539062 -8.32296875 11.81328125 -8.5859375 10.9765625 C-9.33604283 8.64790815 -9.33604283 8.64790815 -11.4375 6.8125 C-16.1421996 5.42646817 -20.27866433 5.35702862 -24.75 7.4375 C-29.16654732 9.98009398 -31.81389583 12.94168748 -33.4375 17.8125 C-34.07357955 26.8644013 -34.02104867 33.45413 -28.125 40.625 C-21.73646569 45.82496979 -14.27861542 45.29790238 -6.4375 44.8125 C-3.34686102 44.32003555 -0.46375443 43.63317917 2.5625 42.8125 C2.19915595 50.07938103 2.19915595 50.07938103 -0.5 53.1875 C-8.79403017 57.7756869 -17.91252617 57.7797604 -27 55.8125 C-34.26146131 53.62171918 -39.95828333 48.80676183 -43.875 42.3125 C-47.75238551 33.1934637 -48.5461737 21.92275584 -45.6015625 12.5 C-42.21463991 4.68052771 -37.55947775 0.22644504 -29.8671875 -3.3125 C-19.95424048 -6.8824359 -8.70012887 -6.23544345 0 0 Z " fill="#34446D" transform="translate(58.4375,214.1875)"/>
<path d="M0 0 C3.15484883 3.25343785 4.12174937 5.57551742 4.4375 10.0625 C4.35044719 13.39537904 4.136822 13.90613199 1.8125 16.5625 C-1.13991985 18.13712392 -2.71576929 18.43784065 -6 18.0625 C-6.14695312 17.44761719 -6.29390625 16.83273438 -6.4453125 16.19921875 C-7.57868504 12.11516944 -8.26497995 9.65751623 -11.625 6.9375 C-16.07180556 5.78462449 -19.59703112 5.67128414 -24 7.0625 C-28.80255711 10.02771519 -32.1597844 13.51868744 -33.484375 19.10546875 C-34.36927909 26.24976795 -33.61419826 32.05675152 -30.1875 38.4375 C-26.99965359 42.26291569 -23.83420018 44.10081186 -19 45.0625 C-11.67874794 45.51809166 -5.07650728 44.94956861 2 43.0625 C2.96017795 46.12844753 3.04518029 46.93227445 1.9375 50.125 C-0.87954447 54.39600291 -3.94204726 55.55944489 -8.8125 56.75 C-19.06316695 57.75496735 -27.29421292 56.81160468 -36 51.0625 C-43.49532507 44.61303424 -46.34874201 37.21491232 -47.22265625 27.6171875 C-47.54495971 18.67676973 -45.44307218 10.79847711 -39.73046875 3.81640625 C-29.24856238 -6.80746724 -12.42058347 -8.02162683 0 0 Z " fill="#34446D" transform="translate(357,213.9375)"/>
<path d="M0 0 C6.65688996 -0.04933278 13.31367418 -0.08568755 19.97070312 -0.10986328 C22.23667249 -0.11993859 24.50262881 -0.13359918 26.76855469 -0.15087891 C30.02021501 -0.17506011 33.27170387 -0.18646763 36.5234375 -0.1953125 C38.05005508 -0.21079636 38.05005508 -0.21079636 39.60751343 -0.22659302 C40.54833771 -0.22674408 41.48916199 -0.22689514 42.45849609 -0.22705078 C43.28900482 -0.231492 44.11951355 -0.23593323 44.97518921 -0.24050903 C47 0 47 0 49 2 C49 4.97 49 7.94 49 11 C42.73 11 36.46 11 30 11 C30 27.17 30 43.34 30 60 C26.37 60 22.74 60 19 60 C18 59 18 59 17.87974548 57.05747986 C17.8830764 55.78173851 17.8830764 55.78173851 17.88647461 54.48022461 C17.88655014 53.51930405 17.88662567 52.55838348 17.88670349 51.56834412 C17.89186478 50.523564 17.89702606 49.47878387 17.90234375 48.40234375 C17.9037587 47.33834854 17.90517365 46.27435333 17.90663147 45.17811584 C17.91224936 41.76454917 17.92480489 38.351047 17.9375 34.9375 C17.94251269 32.62955824 17.947076 30.32161545 17.95117188 28.01367188 C17.96222461 22.34242289 17.97950123 16.6712224 18 11 C12.06 11 6.12 11 0 11 C0 7.37 0 3.74 0 0 Z " fill="#34446D" transform="translate(367,210)"/>
<path d="M0 0 C3.3 0 6.6 0 10 0 C10 19.8 10 39.6 10 60 C6.37 60 2.74 60 -1 60 C-2.70081944 58.29918056 -2.1362474 56.11994031 -2.14526367 53.79345703 C-2.15164352 52.68205353 -2.15802338 51.57065002 -2.16459656 50.42556763 C-2.16626579 48.61002884 -2.16626579 48.61002884 -2.16796875 46.7578125 C-2.17129715 45.52336395 -2.17462555 44.28891541 -2.17805481 43.01705933 C-2.18312968 40.39923476 -2.18546296 37.7814037 -2.18530273 35.16357422 C-2.18522136 32.47470388 -2.19217531 29.78600346 -2.20581055 27.09716797 C-2.22407557 23.23399604 -2.22903696 19.37102322 -2.23046875 15.5078125 C-2.23765427 14.30150177 -2.24483978 13.09519104 -2.25224304 11.85232544 C-2.24916641 10.73461761 -2.24608978 9.61690979 -2.24291992 8.46533203 C-2.24434494 7.48017609 -2.24576996 6.49502014 -2.24723816 5.48001099 C-2 3 -2 3 0 0 Z " fill="#34446D" transform="translate(426,210)"/>
<path d="M0 0 C-0.50492398 4.23444809 -2.87380096 6.26118645 -5.8046875 9.203125 C-6.52436203 9.9271048 -6.52436203 9.9271048 -7.25857544 10.66571045 C-8.27205069 11.68122273 -9.28930664 12.69297411 -10.31005859 13.70117188 C-11.87309638 15.24811598 -13.41945455 16.81044699 -14.96484375 18.375 C-15.95216421 19.36033866 -16.94041456 20.34474663 -17.9296875 21.328125 C-18.82929199 22.2243457 -19.72889648 23.12056641 -20.65576172 24.04394531 C-23 26 -23 26 -26 26 C-25.49507602 21.76555191 -23.12619904 19.73881355 -20.1953125 16.796875 C-19.71552948 16.3142218 -19.23574646 15.8315686 -18.74142456 15.33428955 C-17.72794931 14.31877727 -16.71069336 13.30702589 -15.68994141 12.29882812 C-14.12690362 10.75188402 -12.58054545 9.18955301 -11.03515625 7.625 C-10.04783579 6.63966134 -9.05958544 5.65525337 -8.0703125 4.671875 C-7.17070801 3.7756543 -6.27110352 2.87943359 -5.34423828 1.95605469 C-3 0 -3 0 0 0 Z " fill="#34446D" transform="translate(192,108)"/>
<path d="M0 0 C0.99 0.33 1.98 0.66 3 1 C0.71600498 6.45257494 -3.83780233 10.17202745 -7.95825195 14.27392578 C-9.43792957 15.75042865 -10.90375064 17.23980073 -12.36914062 18.73046875 C-13.29791016 19.65988281 -14.22667969 20.58929688 -15.18359375 21.546875 C-16.03493896 22.40120117 -16.88628418 23.25552734 -17.76342773 24.13574219 C-20 26 -20 26 -23 26 C-22.50743514 21.72819857 -20.06985793 19.72580322 -17.08984375 16.796875 C-16.60294571 16.3142218 -16.11604767 15.8315686 -15.61439514 15.33428955 C-14.0623455 13.7989915 -12.50017864 12.27447075 -10.9375 10.75 C-9.88147643 9.7090278 -8.82612962 8.6673686 -7.77148438 7.625 C-5.18878585 5.07532367 -2.59691118 2.53520804 0 0 Z " fill="#34446D" transform="translate(251,46)"/>
<path d="M0 0 C0.99 0 1.98 0 3 0 C3 11.88 3 23.76 3 36 C2.01 35.67 1.02 35.34 0 35 C0 23.45 0 11.9 0 0 Z " fill="#34446D" transform="translate(208,116)"/>
<path d="M0 0 C0.66 0 1.32 0 2 0 C2 11.88 2 23.76 2 36 C1.01 36 0.02 36 -1 36 C-1.02465098 31.03377651 -1.04283649 26.06758834 -1.05493164 21.10131836 C-1.0599719 19.41055684 -1.06680405 17.71979971 -1.07543945 16.02905273 C-1.08751857 13.60399293 -1.09323123 11.17899056 -1.09765625 8.75390625 C-1.10281754 7.99348526 -1.10797882 7.23306427 -1.11329651 6.44960022 C-1.11349238 4.6326743 -1.06197277 2.81586873 -1 1 C-0.67 0.67 -0.34 0.34 0 0 Z " fill="#34446D" transform="translate(209,28)"/>
<path d="M0 0 C11.88 0 23.76 0 36 0 C36.495 0.99 36.495 0.99 37 2 C34.00717264 3.49641368 30.93721394 3.14222979 27.65625 3.1328125 C26.56890564 3.13424759 26.56890564 3.13424759 25.45959473 3.13571167 C23.92635003 3.13639243 22.39310245 3.13454536 20.85986328 3.13037109 C18.50937442 3.12502134 16.15907665 3.13031953 13.80859375 3.13671875 C12.32031208 3.13605795 10.83203052 3.13477675 9.34375 3.1328125 C8.63851196 3.13483673 7.93327393 3.13686096 7.20666504 3.13894653 C2.22992486 3.11496243 2.22992486 3.11496243 0 2 C0 1.34 0 0.68 0 0 Z " fill="#34446D" transform="translate(235,89)"/>
<path d="M0 0 C11.88 0 23.76 0 36 0 C35.67 0.99 35.34 1.98 35 3 C23.78 3 12.56 3 1 3 C0.67 2.01 0.34 1.02 0 0 Z " fill="#34446D" transform="translate(148,89)"/>
<path d="M0 0 C3.83605489 1.58363082 6.28445649 4.02614122 9.203125 6.9375 C9.6857782 7.41823975 10.1684314 7.89897949 10.66571045 8.39428711 C11.67999064 9.40721093 12.69176804 10.42264638 13.70117188 11.44042969 C15.25171972 13.00173165 16.81270503 14.55202497 18.375 16.1015625 C19.36001734 17.08790061 20.34441453 18.0748585 21.328125 19.0625 C22.67245605 20.41021484 22.67245605 20.41021484 24.04394531 21.78515625 C26 24 26 24 26 26 C21.76555191 25.49507602 19.73881355 23.12619904 16.796875 20.1953125 C16.3142218 19.71552948 15.8315686 19.23574646 15.33428955 18.74142456 C14.31877727 17.72794931 13.30702589 16.71069336 12.29882812 15.68994141 C10.75188402 14.12690362 9.18955301 12.58054545 7.625 11.03515625 C6.63966134 10.04783579 5.65525337 9.05958544 4.671875 8.0703125 C3.7756543 7.17070801 2.87943359 6.27110352 1.95605469 5.34423828 C0 3 0 3 0 0 Z " fill="#34446D" transform="translate(166,46)"/>
<path d="M0 0 C3.86328627 1.5847358 6.28876923 4.05956887 9.203125 7.0078125 C9.6857782 7.49329559 10.1684314 7.97877869 10.66571045 8.47897339 C12.19858562 10.02299866 13.72434004 11.57384824 15.25 13.125 C16.29120361 14.17624009 17.33286541 15.22702657 18.375 16.27734375 C20.92199464 18.84633004 23.46265177 21.42148161 26 24 C25.67 24.66 25.34 25.32 25 26 C19.54742506 23.71600498 15.82797255 19.16219767 11.72607422 15.04174805 C10.24957135 13.56207043 8.76019927 12.09624936 7.26953125 10.63085938 C6.34011719 9.70208984 5.41070312 8.77332031 4.453125 7.81640625 C3.59879883 6.96506104 2.74447266 6.11371582 1.86425781 5.23657227 C0 3 0 3 0 0 Z " fill="#34446D" transform="translate(228,108)"/>
<path d="M0 0 C6.35424109 0.86741358 11.52281996 3.22593058 17.3125 5.875 C18.32634766 6.32230469 19.34019531 6.76960938 20.38476562 7.23046875 C21.34705078 7.66746094 22.30933594 8.10445312 23.30078125 8.5546875 C24.61816284 9.14999268 24.61816284 9.14999268 25.9621582 9.75732422 C28 11 28 11 29 14 C22.34371657 13.53903854 17.07946762 11.01226246 11.125 8.125 C10.16335937 7.67769531 9.20171875 7.23039062 8.2109375 6.76953125 C7.29828125 6.33253906 6.385625 5.89554687 5.4453125 5.4453125 C4.61531738 5.04844238 3.78532227 4.65157227 2.93017578 4.24267578 C1 3 1 3 0 0 Z " fill="#34446D" transform="translate(157,66)"/>
<path d="M0 0 C0.66 0.33 1.32 0.66 2 1 C1.38333953 4.74422073 0.30434425 7.86021688 -1.28515625 11.30078125 C-1.73310547 12.27724609 -2.18105469 13.25371094 -2.64257812 14.25976562 C-3.11115234 15.26716797 -3.57972656 16.27457031 -4.0625 17.3125 C-4.77116211 18.85260742 -4.77116211 18.85260742 -5.49414062 20.42382812 C-6.65802325 22.951452 -7.82677855 25.47670072 -9 28 C-10.32 28 -11.64 28 -13 28 C-10.59145237 21.77667196 -8.01995371 15.62588082 -5.375 9.5 C-5.07392334 8.79359375 -4.77284668 8.0871875 -4.46264648 7.359375 C-2.23281752 2.23281752 -2.23281752 2.23281752 0 0 Z " fill="#34446D" transform="translate(232,38)"/>
<path d="M0 0 C3 1 3 1 4.16674805 3.25317383 C4.52808838 4.22794678 4.88942871 5.20271973 5.26171875 6.20703125 C5.65810547 7.26857422 6.05449219 8.33011719 6.46289062 9.42382812 C6.86701172 10.54208984 7.27113281 11.66035156 7.6875 12.8125 C8.10322266 13.91916016 8.51894531 15.02582031 8.94726562 16.16601562 C12 24.45200893 12 24.45200893 12 29 C9 28 9 28 7.83325195 25.85449219 C7.47191162 24.92797852 7.11057129 24.00146484 6.73828125 23.046875 C6.14370117 21.52900391 6.14370117 21.52900391 5.53710938 19.98046875 C4.93092773 18.38138672 4.93092773 18.38138672 4.3125 16.75 C3.89677734 15.69941406 3.48105469 14.64882812 3.05273438 13.56640625 C-0.26788068 4.96225098 -0.26788068 4.96225098 0 0 Z " fill="#34446D" transform="translate(218,115)"/>
<path d="M0 0 C9.15022102 3.69757535 18.08577928 7.77426968 27 12 C27 12.99 27 13.98 27 15 C23.25577927 14.38333953 20.13978312 13.30434425 16.69921875 11.71484375 C15.72275391 11.26689453 14.74628906 10.81894531 13.74023438 10.35742188 C12.73283203 9.88884766 11.72542969 9.42027344 10.6875 8.9375 C9.66076172 8.46505859 8.63402344 7.99261719 7.57617188 7.50585938 C5.048548 6.34197675 2.52329928 5.17322145 0 4 C0 2.68 0 1.36 0 0 Z " fill="#34446D" transform="translate(234,100)"/>
<path d="M0 0 C-1 3 -1 3 -3.25317383 4.16674805 C-4.71533325 4.70875854 -4.71533325 4.70875854 -6.20703125 5.26171875 C-7.26857422 5.65810547 -8.33011719 6.05449219 -9.42382812 6.46289062 C-10.54208984 6.86701172 -11.66035156 7.27113281 -12.8125 7.6875 C-13.91916016 8.10322266 -15.02582031 8.51894531 -16.16601562 8.94726562 C-24.45200893 12 -24.45200893 12 -29 12 C-28 9 -28 9 -25.85449219 7.83325195 C-24.92797852 7.47191162 -24.00146484 7.11057129 -23.046875 6.73828125 C-22.03496094 6.34189453 -21.02304688 5.94550781 -19.98046875 5.53710938 C-18.91441406 5.13298828 -17.84835938 4.72886719 -16.75 4.3125 C-15.69941406 3.89677734 -14.64882812 3.48105469 -13.56640625 3.05273438 C-4.96225098 -0.26788068 -4.96225098 -0.26788068 0 0 Z " fill="#34446D" transform="translate(185,99)"/>
<path d="M0 0 C3 1 3 1 4.16674805 3.25317383 C4.52808838 4.22794678 4.88942871 5.20271973 5.26171875 6.20703125 C5.65810547 7.26857422 6.05449219 8.33011719 6.46289062 9.42382812 C7.06907227 11.1012207 7.06907227 11.1012207 7.6875 12.8125 C8.10322266 13.91916016 8.51894531 15.02582031 8.94726562 16.16601562 C12 24.45200893 12 24.45200893 12 29 C9 28 9 28 8.06445312 26.37695312 C7.67676758 25.33958008 7.67676758 25.33958008 7.28125 24.28125 C6.98863281 23.51296875 6.69601563 22.7446875 6.39453125 21.953125 C5.95173828 20.73882812 5.95173828 20.73882812 5.5 19.5 C5.20480469 18.72140625 4.90960938 17.9428125 4.60546875 17.140625 C2.60030962 11.80531172 0.76724963 6.41827084 -1 1 C-0.67 0.67 -0.34 0.34 0 0 Z " fill="#34446D" transform="translate(189,37)"/>
<path d="M0 0 C0.66 0 1.32 0 2 0 C1.44030144 4.17229835 0.48690425 7.58514274 -1.28515625 11.3984375 C-1.73310547 12.37167969 -2.18105469 13.34492187 -2.64257812 14.34765625 C-3.11115234 15.34667969 -3.57972656 16.34570312 -4.0625 17.375 C-4.77116211 18.90833984 -4.77116211 18.90833984 -5.49414062 20.47265625 C-6.65632219 22.98484671 -7.82509244 25.49374253 -9 28 C-9.99 28 -10.98 28 -12 28 C-11.42934603 23.06194096 -9.83736949 18.99294383 -7.6875 14.5625 C-7.39166016 13.93279297 -7.09582031 13.30308594 -6.79101562 12.65429688 C-4.72461442 8.31173019 -2.42661656 4.15149632 0 0 Z " fill="#34446D" transform="translate(197,114)"/>
<path d="M0 0 C-1 3 -1 3 -3.25317383 4.16674805 C-4.71533325 4.70875854 -4.71533325 4.70875854 -6.20703125 5.26171875 C-7.26857422 5.65810547 -8.33011719 6.05449219 -9.42382812 6.46289062 C-10.54208984 6.86701172 -11.66035156 7.27113281 -12.8125 7.6875 C-13.91916016 8.10322266 -15.02582031 8.51894531 -16.16601562 8.94726562 C-24.45200893 12 -24.45200893 12 -29 12 C-28 9 -28 9 -25.85449219 7.83325195 C-24.92797852 7.47191162 -24.00146484 7.11057129 -23.046875 6.73828125 C-22.03496094 6.34189453 -21.02304688 5.94550781 -19.98046875 5.53710938 C-18.91441406 5.13298828 -17.84835938 4.72886719 -16.75 4.3125 C-15.69941406 3.89677734 -14.64882812 3.48105469 -13.56640625 3.05273438 C-4.96225098 -0.26788068 -4.96225098 -0.26788068 0 0 Z " fill="#34446D" transform="translate(263,70)"/>
<path d="M0 0 C0.99 0.33 1.98 0.66 3 1 C-0.42752566 7.4266106 -4.65346984 13.16594374 -9 19 C-9.99 18.67 -10.98 18.34 -12 18 C-8.63038019 11.43157061 -4.67946944 5.70436765 0 0 Z " fill="#34446D" transform="translate(185,122)"/>
<path d="M0 0 C5.1239751 0.46047195 8.3275701 3.0789325 12.3125 6.0625 C12.95767578 6.53494141 13.60285156 7.00738281 14.26757812 7.49414062 C15.85070051 8.65509704 17.42613569 9.82652336 19 11 C18.67 11.99 18.34 12.98 18 14 C13.67248162 12.51742426 10.3997399 10.29980493 6.75 7.5625 C5.69296875 6.78003906 4.6359375 5.99757813 3.546875 5.19140625 C1 3 1 3 0 0 Z " fill="#34446D" transform="translate(159,54)"/>
<path d="M0 0 C0.66 0 1.32 0 2 0 C1.51573741 5.06538666 -0.97100789 8.31848253 -3.875 12.3125 C-4.54595703 13.28026367 -4.54595703 13.28026367 -5.23046875 14.26757812 C-6.40611737 15.90620341 -7.69646216 17.461159 -9 19 C-9.99 19 -10.98 19 -12 19 C-11.40295682 16.0322249 -10.52860031 14.0237371 -8.75 11.58203125 C-8.3065625 10.96779297 -7.863125 10.35355469 -7.40625 9.72070312 C-6.9421875 9.09099609 -6.478125 8.46128906 -6 7.8125 C-5.5359375 7.17119141 -5.071875 6.52988281 -4.59375 5.86914062 C-1.20583977 1.20583977 -1.20583977 1.20583977 0 0 Z " fill="#34446D" transform="translate(244,39)"/>
<path d="M0 0 C0.99 0 1.98 0 3 0 C4.90094901 6.92488567 5.98208077 13.89622327 7 21 C5.68 21 4.36 21 3 21 C2.01 14.07 1.02 7.14 0 0 Z " fill="#34446D" transform="translate(215,129)"/>
<path d="M0 0 C4.36019038 1.51623162 7.98603262 3.81963954 11.75 6.4375 C12.33910156 6.83259766 12.92820313 7.22769531 13.53515625 7.63476562 C17.87835599 10.63506798 17.87835599 10.63506798 19 14 C13.93461334 13.51573741 10.68151747 11.02899211 6.6875 8.125 C6.04232422 7.67769531 5.39714844 7.23039062 4.73242188 6.76953125 C3.09379659 5.59388263 1.538841 4.30353784 0 3 C0 2.01 0 1.02 0 0 Z " fill="#34446D" transform="translate(242,112)"/>
<path d="M0 0 C0.99 0.33 1.98 0.66 3 1 C5.35527595 7.80413052 5.58609236 14.85464705 6 22 C5.01 21.67 4.02 21.34 3 21 C2.49576443 18.25071558 1.99646574 15.50068857 1.5 12.75 C1.35691406 11.97269531 1.21382812 11.19539063 1.06640625 10.39453125 C0.93105469 9.64042969 0.79570312 8.88632812 0.65625 8.109375 C0.46772461 7.07248535 0.46772461 7.07248535 0.27539062 6.01464844 C0 4 0 4 0 0 Z " fill="#34446D" transform="translate(198,29)"/>
<path d="M0 0 C0 0.66 0 1.32 0 2 C-6.98144819 3.69214979 -13.84404654 5.29843593 -21 6 C-21.33 5.01 -21.66 4.02 -22 3 C-3.8 -1.9 -3.8 -1.9 0 0 Z " fill="#34446D" transform="translate(171,96)"/>
<path d="M0 0 C-2 3 -2 3 -4.06298828 3.6159668 C-4.89040527 3.72593994 -5.71782227 3.83591309 -6.5703125 3.94921875 C-7.91416016 4.13774414 -7.91416016 4.13774414 -9.28515625 4.33007812 C-10.22230469 4.44802734 -11.15945313 4.56597656 -12.125 4.6875 C-13.06988281 4.81705078 -14.01476562 4.94660156 -14.98828125 5.08007812 C-17.32418946 5.39861106 -19.66105953 5.70470481 -22 6 C-22 5.01 -22 4.02 -22 3 C-19.95888458 2.51849058 -17.91708068 2.03989917 -15.875 1.5625 C-14.73804688 1.29566406 -13.60109375 1.02882813 -12.4296875 0.75390625 C-3.57652711 -1.1921757 -3.57652711 -1.1921757 0 0 Z " fill="#34446D" transform="translate(271,79)"/>
<path d="M0 0 C-0.47409648 4.31730413 -3.03396703 6.33647461 -6.0625 9.25 C-6.98160156 10.14203125 -7.90070313 11.0340625 -8.84765625 11.953125 C-9.55792969 12.62859375 -10.26820313 13.3040625 -11 14 C-11.99 13.67 -12.98 13.34 -14 13 C-12.4700928 9.39438086 -10.31303068 7.0140801 -7.5625 4.25 C-6.78003906 3.45078125 -5.99757813 2.6515625 -5.19140625 1.828125 C-3 0 -3 0 0 0 Z " fill="#34446D" transform="translate(273,27)"/>
<path d="M0 0 C0.99 0.33 1.98 0.66 3 1 C0.43070042 6.13859917 -3.5619534 10.39408714 -8 14 C-8.99 14 -9.98 14 -11 14 C-10.52590352 9.68269587 -7.96603297 7.66352539 -4.9375 4.75 C-4.01839844 3.85796875 -3.09929687 2.9659375 -2.15234375 2.046875 C-1.44207031 1.37140625 -0.73179687 0.6959375 0 0 Z " fill="#34446D" transform="translate(158,139)"/>
<path d="M0 0 C0.66 0.33 1.32 0.66 2 1 C0.65140392 5.04578824 -1.21997017 5.5970333 -4.875 7.6875 C-5.94492187 8.31011719 -7.01484375 8.93273438 -8.1171875 9.57421875 C-11 11 -11 11 -14 11 C-12.49193111 6.74913081 -9.81856735 5.3675715 -6 3.1875 C-4.9275 2.56230469 -3.855 1.93710937 -2.75 1.29296875 C-1.38875 0.65294922 -1.38875 0.65294922 0 0 Z " fill="#34446D" transform="translate(272,50)"/>
<path d="M0 0 C0.66 0 1.32 0 2 0 C2 6.27 2 12.54 2 19 C1.01 18.67 0.02 18.34 -1 18 C-1.02684312 15.18743719 -1.04676188 12.37512759 -1.0625 9.5625 C-1.07087891 8.76005859 -1.07925781 7.95761719 -1.08789062 7.13085938 C-1.0965143 5.08704779 -1.0522815 3.04316098 -1 1 C-0.67 0.67 -0.34 0.34 0 0 Z " fill="#34446D" transform="translate(209,160)"/>
<path d="M0 0 C6.27 0 12.54 0 19 0 C18.67 0.99 18.34 1.98 18 3 C12.39 3 6.78 3 1 3 C0.67 2.01 0.34 1.02 0 0 Z " fill="#34446D" transform="translate(280,89)"/>
<path d="M0 0 C6.27 0 12.54 0 19 0 C18.67 0.99 18.34 1.98 18 3 C12.39 3 6.78 3 1 3 C0.67 2.01 0.34 1.02 0 0 Z " fill="#34446D" transform="translate(121,89)"/>
<path d="M0 0 C0.66 0 1.32 0 2 0 C2 6.27 2 12.54 2 19 C1.01 18.67 0.02 18.34 -1 18 C-1.02684312 15.18743719 -1.04676188 12.37512759 -1.0625 9.5625 C-1.07087891 8.76005859 -1.07925781 7.95761719 -1.08789062 7.13085938 C-1.0965143 5.08704779 -1.0522815 3.04316098 -1 1 C-0.67 0.67 -0.34 0.34 0 0 Z " fill="#34446D" transform="translate(209,1)"/>
<path d="M0 0 C5.28 1.32 10.56 2.64 16 4 C16 4.99 16 5.98 16 7 C4.47835991 5.07289294 4.47835991 5.07289294 -1 3 C-0.67 2.01 -0.34 1.02 0 0 Z " fill="#34446D" transform="translate(266,102)"/>
<path d="M0 0 C4.95 0.99 9.9 1.98 15 3 C15.33 4.32 15.66 5.64 16 7 C9.84431924 6.06898067 4.39154257 5.20578207 -1 2 C-0.67 1.34 -0.34 0.68 0 0 Z " fill="#34446D" transform="translate(138,71)"/>
<path d="M0 0 C4.04500194 1.34833398 4.63621086 3.23264433 6.75 6.875 C7.38421875 7.94492187 8.0184375 9.01484375 8.671875 10.1171875 C10 13 10 13 9 16 C4.06087179 11.76646153 1.67865488 6.87024368 -1 1 C-0.67 0.67 -0.34 0.34 0 0 Z " fill="#34446D" transform="translate(171,26)"/>
<path d="M0 0 C0.99 0 1.98 0 3 0 C1.68 5.28 0.36 10.56 -1 16 C-1.99 16 -2.98 16 -4 16 C-3.71515154 14.26969709 -3.42180062 12.54079286 -3.125 10.8125 C-2.96257812 9.84957031 -2.80015625 8.88664062 -2.6328125 7.89453125 C-2.01960483 5.08967396 -1.14333657 2.62775253 0 0 Z " fill="#34446D" transform="translate(226,18)"/>
<path d="M0 0 C0.99 0 1.98 0 3 0 C4.82421875 2.51953125 4.82421875 2.51953125 6.6875 5.8125 C7.31011719 6.89144531 7.93273437 7.97039062 8.57421875 9.08203125 C10 12 10 12 10 15 C6.17090709 13.52663164 4.78616322 11.56408372 2.75 8.0625 C2.22921875 7.18722656 1.7084375 6.31195313 1.171875 5.41015625 C0 3 0 3 0 0 Z " fill="#34446D" transform="translate(239,139)"/>
<path d="M0 0 C0.33 0 0.66 0 1 0 C0.54775239 5.91492272 -0.1582605 11.35199888 -2 17 C-2.99 17 -3.98 17 -5 17 C-3.57142857 3.57142857 -3.57142857 3.57142857 0 0 Z " fill="#34446D" transform="translate(196,145)"/>
<path d="M0 0 C4.554787 3.80014774 8.95279259 7.65665546 13 12 C13 12.66 13 13.32 13 14 C8.68269587 13.52590352 6.66352539 10.96603297 3.75 7.9375 C2.85796875 7.01839844 1.9659375 6.09929687 1.046875 5.15234375 C0.37140625 4.44207031 -0.3040625 3.73179687 -1 3 C-0.67 2.01 -0.34 1.02 0 0 Z " fill="#34446D" transform="translate(260,139)"/>
<path d="M0 0 C0 0.99 0 1.98 0 3 C-4.62 5.64 -9.24 8.28 -14 11 C-14 9.68 -14 8.36 -14 7 C-11.69921875 5.078125 -11.69921875 5.078125 -8.6875 3.25 C-7.70136719 2.63640625 -6.71523437 2.0228125 -5.69921875 1.390625 C-3 0 -3 0 0 0 Z " fill="#34446D" transform="translate(161,119)"/>
<path d="M0 0 C3.90285767 1.58667578 6.33520982 4.13350481 9.25 7.125 C10.14203125 8.03507812 11.0340625 8.94515625 11.953125 9.8828125 C12.62859375 10.58148438 13.3040625 11.28015625 14 12 C13.67 12.66 13.34 13.32 13 14 C9.39438086 12.4700928 7.0140801 10.31303068 4.25 7.5625 C3.45078125 6.78003906 2.6515625 5.99757813 1.828125 5.19140625 C0 3 0 3 0 0 Z " fill="#34446D" transform="translate(147,27)"/>
<path d="M0 0 C0.99 0 1.98 0 3 0 C1.63356852 3.98542514 -0.10109014 6.92539863 -3 10 C-3.99 10 -4.98 10 -6 10 C-4.63356852 6.01457486 -2.89890986 3.07460137 0 0 Z " fill="#34446D" transform="translate(256,22)"/>
<path d="M0 0 C3.98671063 1.36687222 6.88494633 3.15195093 10 6 C10 6.66 10 7.32 10 8 C4.96014269 7.55530671 2.62365012 5.28656638 -1 2 C-0.67 1.34 -0.34 0.68 0 0 Z " fill="#34446D" transform="translate(142,41)"/>
<path d="M0 0 C0.99 0.33 1.98 0.66 3 1 C3.33 4.63 3.66 8.26 4 12 C3.01 12 2.02 12 1 12 C-0.3271261 8.0186217 -0.06915913 4.14954773 0 0 Z " fill="#34446D" transform="translate(221,160)"/>
<path d="M0 0 C3.32368224 1.10789408 3.61563093 1.48436217 5.25 4.375 C5.60578125 4.98085938 5.9615625 5.58671875 6.328125 6.2109375 C7 8 7 8 6 11 C2.60582235 7.87378374 0.3937282 5.43458973 -1 1 C-0.67 0.67 -0.34 0.34 0 0 Z " fill="#34446D" transform="translate(182,44)"/>
<path d="M0 0 C0.99 0.33 1.98 0.66 3 1 C3.33 4.63 3.66 8.26 4 12 C3.01 11.67 2.02 11.34 1 11 C0.63890458 9.35567294 0.28629924 7.7094792 -0.0625 6.0625 C-0.25972656 5.14597656 -0.45695313 4.22945312 -0.66015625 3.28515625 C-0.77230469 2.53105469 -0.88445312 1.77695313 -1 1 C-0.67 0.67 -0.34 0.34 0 0 Z " fill="#34446D" transform="translate(195,8)"/>
<path d="M0 0 C0.66 0 1.32 0 2 0 C1.49942848 4.38000076 0.06806466 6.84169815 -3 10 C-3.99 10 -4.98 10 -6 10 C-4.63312778 6.01328937 -2.84804907 3.11505367 0 0 Z " fill="#34446D" transform="translate(167,148)"/>
<path d="M0 0 C-0.1875 1.8125 -0.1875 1.8125 -1 4 C-4.34811134 6.53370588 -5.70124217 7 -10 7 C-8.2054392 2.26888516 -5.07937287 0 0 0 Z " fill="#34446D" transform="translate(174,111)"/>
<path d="M0 0 C-0.33 0.99 -0.66 1.98 -1 3 C-4.63 3.33 -8.26 3.66 -12 4 C-11.67 3.01 -11.34 2.02 -11 1 C-7.50970582 -0.47666292 -3.72563614 -0.07164685 0 0 Z " fill="#34446D" transform="translate(292,75)"/>
<path d="M0 0 C0.556875 0.226875 1.11375 0.45375 1.6875 0.6875 C-0.78835238 3.34019897 -2.90276101 5.36760103 -6.3125 6.6875 C-7.3025 6.6875 -8.2925 6.6875 -9.3125 6.6875 C-7.70234959 2.442558 -4.80443663 -0.64924819 0 0 Z " fill="#34446D" transform="translate(254.3125,62.3125)"/>
<path d="M0 0 C4.00458831 0.61609051 6.83019669 2.55060653 10 5 C10 5.99 10 6.98 10 8 C6.01328937 6.63312778 3.11505367 4.84804907 0 2 C0 1.34 0 0.68 0 0 Z " fill="#34446D" transform="translate(268,131)"/>
<path d="M0 0 C0 0.99 0 1.98 0 3 C-3.67410785 4.17571451 -7.16929183 4.07366746 -11 4 C-10.67 3.01 -10.34 2.02 -10 1 C-6.59437148 0.22157062 -3.49234244 -0.09978121 0 0 Z " fill="#34446D" transform="translate(139,101)"/>
<path d="M0 0 C1.43861294 0.08746284 2.87597508 0.19565348 4.3125 0.3125 C5.11300781 0.37050781 5.91351563 0.42851563 6.73828125 0.48828125 C9.36272334 1.08206694 10.30820672 1.95780294 12 4 C8.52128379 5.15957207 7.65780355 4.77456651 4.3125 3.5625 C3.50425781 3.27503906 2.69601563 2.98757812 1.86328125 2.69140625 C1.24839844 2.46324219 0.63351563 2.23507813 0 2 C0 1.34 0 0.68 0 0 Z " fill="#34446D" transform="translate(250,99)"/>
<path d="M0 0 C0.99 0 1.98 0 3 0 C2.38461538 7.50769231 2.38461538 7.50769231 0.4375 10 C-0.036875 10.33 -0.51125 10.66 -1 11 C-2.60080151 6.99799622 -1.29279692 3.95443764 0 0 Z " fill="#34446D" transform="translate(198,131)"/>
<path d="M0 0 C0.99 0 1.98 0 3 0 C7 6.625 7 6.625 7 10 C3.17398693 8.54875366 1.77670876 6.64225296 0 3 C0 2.01 0 1.02 0 0 Z " fill="#34446D" transform="translate(231,126)"/>
<path d="M0 0 C1.48206495 0.254496 2.96068615 0.52911762 4.4375 0.8125 C5.67306641 1.03873047 5.67306641 1.03873047 6.93359375 1.26953125 C7.61550781 1.51058594 8.29742187 1.75164062 9 2 C9.33 2.99 9.66 3.98 10 5 C8.54119891 4.85892253 7.08296449 4.71197585 5.625 4.5625 C4.40683594 4.44068359 4.40683594 4.44068359 3.1640625 4.31640625 C1 4 1 4 -1 3 C-0.67 2.01 -0.34 1.02 0 0 Z " fill="#34446D" transform="translate(159,76)"/>
<path d="M0 0 C0.99 0.33 1.98 0.66 3 1 C2.745504 2.48206495 2.47088238 3.96068615 2.1875 5.4375 C2.03667969 6.26121094 1.88585937 7.08492187 1.73046875 7.93359375 C1.48941406 8.61550781 1.24835938 9.29742187 1 10 C0.01 10.33 -0.98 10.66 -2 11 C-1.85892253 9.54119891 -1.71197585 8.08296449 -1.5625 6.625 C-1.48128906 5.81289063 -1.40007812 5.00078125 -1.31640625 4.1640625 C-1 2 -1 2 0 0 Z " fill="#34446D" transform="translate(221,38)"/>
<path d="M0 0 C0.66 0 1.32 0 2 0 C1.125 5.75 1.125 5.75 0 8 C-0.99 8 -1.98 8 -3 8 C-2.25 2.25 -2.25 2.25 0 0 Z " fill="#34446D" transform="translate(183,145)"/>
<path d="M0 0 C5.75 0.875 5.75 0.875 8 2 C8 2.99 8 3.98 8 5 C4.62537285 4.45276317 2.91765 3.9451 0 2 C0 1.34 0 0.68 0 0 Z " fill="#34446D" transform="translate(264,115)"/>
<path d="M0 0 C3.37462715 0.54723683 5.08235 1.0549 8 3 C8 3.66 8 4.32 8 5 C2.25 4.125 2.25 4.125 0 3 C0 2.01 0 1.02 0 0 Z " fill="#34446D" transform="translate(147,61)"/>
<path d="M0 0 C0.99 0 1.98 0 3 0 C2.45276317 3.37462715 1.9451 5.08235 0 8 C-0.66 8 -1.32 8 -2 8 C-1.125 2.25 -1.125 2.25 0 0 Z " fill="#34446D" transform="translate(236,28)"/>
<path d="M0 0 C0.99 0.33 1.98 0.66 3 1 C3.33 3.31 3.66 5.62 4 8 C3.01 7.67 2.02 7.34 1 7 C-0.1875 3.9375 -0.1875 3.9375 -1 1 C-0.67 0.67 -0.34 0.34 0 0 Z " fill="#34446D" transform="translate(230,147)"/>
<path d="M0 0 C-0.33 0.99 -0.66 1.98 -1 3 C-3.31 3.33 -5.62 3.66 -8 4 C-7 1 -7 1 -4.5625 -0.25 C-2 -1 -2 -1 0 0 Z " fill="#34446D" transform="translate(153,111)"/>
<path d="M0 0 C-0.33 0.99 -0.66 1.98 -1 3 C-3.31 3.33 -5.62 3.66 -8 4 C-7 1 -7 1 -4.5625 -0.25 C-2 -1 -2 -1 0 0 Z " fill="#34446D" transform="translate(274,66)"/>
<path d="M0 0 C0.99 0.33 1.98 0.66 3 1 C3.33 3.31 3.66 5.62 4 8 C3.01 7.67 2.02 7.34 1 7 C-0.1875 3.9375 -0.1875 3.9375 -1 1 C-0.67 0.67 -0.34 0.34 0 0 Z " fill="#34446D" transform="translate(185,26)"/>
</svg>
